<svg id="color" enable-background="new 0 0 24 24" height="512" viewBox="0 0 24 24" width="512" xmlns="http://www.w3.org/2000/svg"><path d="m22.902 14.428-.006-.006-1.406-1.292c.043-.38.064-.759.064-1.13s-.021-.75-.064-1.13l1.412-1.298c.585-.55.72-1.424.322-2.135l-1.658-2.868c-.394-.699-1.244-1.032-2.024-.788l-1.822.575c-.613-.463-1.268-.843-1.954-1.134l-.422-1.873c-.178-.794-.869-1.349-1.681-1.349h-3.326c-.812 0-1.503.555-1.681 1.349l-.422 1.873c-.686.291-1.34.671-1.954 1.134l-1.825-.576c-.779-.242-1.629.091-2.017.781l-1.668 2.886c-.392.701-.257 1.575.334 2.131l1.406 1.292c-.043.38-.064.759-.064 1.13s.021.749.064 1.13l-1.412 1.298c-.585.55-.72 1.424-.322 2.135l1.658 2.868c.393.698 1.242 1.028 2.024.788l1.822-.575c.613.463 1.268.843 1.954 1.134l.422 1.873c.178.794.869 1.349 1.681 1.349h3.326c.812 0 1.503-.555 1.681-1.349l.422-1.874c.686-.291 1.341-.671 1.954-1.134l1.825.576c.778.241 1.628-.09 2.017-.781l1.668-2.885c.392-.701.257-1.575-.328-2.125z" fill="#4caf50"/><path d="m11.625 11.25h.75c1.172 0 2.125.953 2.125 2.125 0 1.043-.757 1.909-1.75 2.087v.788c0 .414-.336.75-.75.75s-.75-.336-.75-.75v-.75h-1c-.414 0-.75-.336-.75-.75s.336-.75.75-.75h2.125c.345 0 .625-.28.625-.625s-.28-.625-.625-.625h-.75c-1.172 0-2.125-.953-2.125-2.125 0-1.043.757-1.909 1.75-2.087v-.788c0-.414.336-.75.75-.75s.75.336.75.75v.75h1c.414 0 .75.336.75.75s-.336.75-.75.75h-2.125c-.345 0-.625.28-.625.625s.28.625.625.625z" fill="#fff"/><path d="m12 10h-.375c-.345 0-.625.28-.625.625s.28.625.625.625h.375zm0-10h-1.663c-.812 0-1.503.555-1.681 1.349l-.422 1.873c-.686.291-1.34.671-1.954 1.134l-1.825-.576c-.171-.053-.346-.079-.518-.079-.612 0-1.196.321-1.498.86l-1.669 2.886c-.392.701-.257 1.575.334 2.131l1.406 1.292c-.043.38-.064.759-.064 1.13s.021.749.064 1.13l-1.412 1.298c-.585.55-.72 1.424-.322 2.135l1.658 2.868c.307.545.892.866 1.506.866.172 0 .347-.025.518-.078l1.822-.575c.613.463 1.268.843 1.954 1.134l.422 1.873c.178.794.869 1.349 1.681 1.349h1.663v-7c-.414 0-.75-.336-.75-.75v-.75h-1c-.414 0-.75-.336-.75-.75s.336-.75.75-.75h1.75v-1.25h-.375c-1.172 0-2.125-.953-2.125-2.125 0-1.043.757-1.909 1.75-2.087v-.788c0-.414.336-.75.75-.75z" fill="#429846"/><path d="m12 14h-1.75c-.414 0-.75.336-.75.75s.336.75.75.75h1v.75c0 .414.336.75.75.75zm0-7c-.414 0-.75.336-.75.75v.788c-.993.178-1.75 1.044-1.75 2.087 0 1.172.953 2.125 2.125 2.125h.375v-1.5h-.375c-.345 0-.625-.28-.625-.625s.28-.625.625-.625h.375z" fill="#dedede"/></svg>